<svg xmlns="http://www.w3.org/2000/svg" viewBox="0 0 89.64 93.58"><g id="Layer_2" data-name="Layer 2"><g id="Layer_2-2" data-name="Layer 2"><path d="M0,45.88a50.08,50.08,0,0,1,9.8-28.69c1.69-2.38,3.74-4.88,6.77-2.5s.56,4.65-.92,6.77c-11.6,16.64-11.48,33.9.42,50.88,1.48,2.11,3,4.43.47,6.43-2.84,2.27-4.79-.12-6.48-2.18C4,69.18-.22,56.34,0,45.88Z" fill="#efe52f"/><path d="M70.19,78.1c-4.88,0-9.75.06-14.62,0-2.7,0-4.92-1-4.77-4.23.13-2.91,2.24-3.65,4.75-3.65,9.74,0,19.49,0,29.23.07,2.68,0,5,1,4.86,4.15-.13,2.82-2.38,3.64-4.84,3.67C79.93,78.15,75.06,78.1,70.19,78.1Z" fill="#efe52f"/><path d="M87,15.65c2.15.78,3.05,2.38,2.39,4.5A4.34,4.34,0,0,1,85,23.2q-14.84.12-29.69.09a4.11,4.11,0,0,1-4.49-4.06c-.23-3,2-3.71,4.41-3.9l.26.2.27-.22,4,.07a.81.81,0,0,0,1.39,0l14.75.14h2.54c2.87-.28,5.75-.75,8.61.15ZM73.42,18.58h-14C64.18,19.73,68.87,20.49,73.42,18.58Z" fill="#efe52f"/><path d="M70.5,3.2C75.66,2.6,80.08,4,83,8.69c1.35,2.16,1.67,4-1.89,3.93q-11-.07-21.92,0c-3.68,0-3.1-1.83-1.88-3.93C60.27,3.63,65.06,2.69,70.5,3.2Z" fill="#efe52f"/><path d="M69.69,90.29c-5.36.5-9.94-.79-12.58-6.11-1-2.08-.81-3.32,1.84-3.31,7.47,0,14.94,0,22.4,0,3.26,0,2.89,1.66,1.83,3.66C80.27,90,75.21,90.65,69.69,90.29Z" fill="#efe52f"/><path d="M59.92,2.34C44.66,0,31,3.61,18.84,13.16,22.79,4.05,48.17-4.18,59.92,2.34Z" fill="#efe52f"/><path d="M18.93,80.43C31,90.24,44.83,93.14,60,91.07,50.42,97.38,25.65,91.06,18.93,80.43Z" fill="#efe52f"/><path d="M61.07,15.36a.81.81,0,0,1-1.39,0Z" fill="#efe52f"/><path d="M55.73,15.31l-.27.22-.26-.2.26-.21Z" fill="#efe52f"/></g></g></svg>